<?xml version="1.0" encoding="UTF-8"?>
<svg id="_Слой_2" data-name="Слой 2" xmlns="http://www.w3.org/2000/svg" viewBox="0 0 93.76 120.63">
  <g id="Object">
    <g>
      <path d="M.18,116.62c-.19,.33-.16,.49-.1,.51,.03-.13,.07-.26,.13-.38,0-.04-.02-.08-.03-.12Z"/>
      <path d="M93.66,33.75c.05-7.62,.1-15.26-.29-22.87-.13-2.54,.27-8.26-2.27-10.23-.38-.35-.88-.58-1.51-.63-.16-.02-.31-.03-.46-.02-18.34,.33-36.67,.96-55.01,1.08-3.21,.02-5.59-.53-8.05,1.54-3.34,2.81-6.33,6.05-9.73,8.83-3.49,2.86-7.12,5.55-10.79,8.18-2.31,1.66-3.49,2.19-3.74,5.05-.72,8.33-.21,16.98-.29,25.34-.07,7.47-.89,14.86-.86,22.37,.03,7.05-.02,14.11-.06,21.16-.03,5.24-.08,10.47-.19,15.71-.04,1.82-.07,3.65-.16,5.47-.02,.46-.26,1.4-.1,1.83,0,.03,.01,.05,.02,.07,.11-.19,.29-.43,.59-.74-.25,.26-.43,.56-.56,.86,.04,.26-.06,.4-.13,.38-.4,1.64,.74,3.51,2.66,3.51,13.6,0,27.2-.44,40.79-.59,13.02-.15,26.14,.99,39.14,.18,6.04-.37,9.72,0,10.42-6.2,.59-5.16,.54-10.42,.59-15.6,.23-21.55-.18-43.11-.03-64.66Zm-6.63-29.32c.09,.13,.19,.25,.31,.36,0,.06-.02,.12-.04,.2-.49-.29-.43-.52-.27-.56ZM21.85,14.07c1.36-1.15,2.83-2.82,4.36-4.29-.04,1.3-.05,2.61-.1,3.94-.06,1.93-.2,3.86-.42,5.77-.05,.43-.54,6.25-1.2,6.87-.82,.78-6.43-1.91-7.87-2.36-1.9-.59-3.83-1.06-5.77-1.45,3.73-2.74,7.45-5.48,10.99-8.47ZM87.94,107.1c-.07,1.94-.11,3.89-.31,5.82-.36,3.41-.63,1.87-3.95,1.67-6.75-.41-13.74,.25-20.53,.05-6.19-.18-12.36-.24-18.55-.18-12.82,.13-25.63,.51-38.45,.58,.15-2.64-.18-5.56-.15-7.2,.14-7.9,.18-15.81,.2-23.71,.06-18.88,1.1-37.67,1.16-56.55,4.04,.71,7.97,1.77,11.84,3.23,2.36,.89,6.15,2.92,8.63,1.23,2.64-1.8,2.67-7.09,3.08-9.89,.76-5.15,.21-10.56,1.09-15.67,3.02-.45,6.92,.12,9.65,.09,15.2-.2,30.4-.68,45.6-.96,.06,.61,.28,1.46,.31,1.79,.23,2.38,.3,4.78,.37,7.16,.2,6.39,.19,12.79,.15,19.19-.05,7.6-.36,15.21-.27,22.81,.13,11,.33,22,.34,33,0,5.84-.01,11.69-.21,17.54Z"/>
      <path d="M26.53,60.23c2.75-.87,3.59-3.9,4.77-6.28,1.49-3.02,2.94-6.06,4.35-9.11,1.49-3.23-3.3-6.06-4.81-2.81-1.59,3.44-3.08,7.34-4.97,10.81-.14-.25-.28-.49-.42-.72-1.91-3.02-6.73-.23-4.81,2.81,.98,1.55,1.84,3.31,3.18,4.59,.7,.67,1.76,1.02,2.71,.72Z"/>
      <path d="M44.85,55.65c8.16-.26,16.31-.76,24.45-1.48,3.54-.32,3.57-5.89,0-5.57-8.14,.72-16.28,1.22-24.45,1.48-3.57,.12-3.59,5.68,0,5.57Z"/>
      <path d="M24.83,80.7c1.47,.79,3.15,.21,4.1-1.09,.89-1.23,1.47-2.84,2.16-4.2,.87-1.74,1.74-3.48,2.61-5.22,1.6-3.2-3.21-6.02-4.81-2.81-.99,1.98-1.89,4.19-2.93,6.27-.15-.2-.3-.4-.44-.59-.95-1.18-2.95-.97-3.94,0-1.17,1.15-.93,2.77,0,3.94,.94,1.17,1.91,2.98,3.26,3.71Z"/>
      <path d="M68.16,78.42c3.55,.42,3.52-5.15,0-5.57-7.62-.9-15.26-1.26-22.93-1.09-3.58,.08-3.59,5.65,0,5.57,7.68-.17,15.31,.19,22.93,1.09Z"/>
      <path d="M32.8,87.57c-1.15,1.87-2.3,3.75-3.45,5.62-.54,.87-1.07,1.75-1.61,2.62-.05,.08-.1,.16-.15,.24-.24-.44-.45-.89-.64-1.28-1.57-3.22-6.38-.4-4.81,2.81,1.4,2.86,4.89,7.75,8.29,4.27,1.45-1.49,2.41-3.72,3.49-5.48,1.23-2,2.45-4,3.68-6,1.88-3.06-2.94-5.86-4.81-2.81Z"/>
      <path d="M69.67,93.21c-7.72,1.21-15.39-1.29-23.15,.14-3.52,.65-2.03,6.01,1.48,5.37,7.68-1.41,15.41,1.08,23.15-.14,3.53-.55,2.03-5.92-1.48-5.37Z"/>
    </g>
  </g>
</svg>