<?xml version="1.0" encoding="UTF-8"?>
<svg id="_Слой_2" data-name="Слой 2" xmlns="http://www.w3.org/2000/svg" viewBox="0 0 112.14 124.28">
  <g id="Object">
    <g>
      <path d="M111.46,2.13c-.23-1.25-1.53-1.97-2.68-2.04-9.8-.64-19.9,2.3-29.41,6.72-.05-.02-.09-.04-.15-.06-12.29-3.63-24.56,1.42-35.41,7.14-10.58,5.58-19.75,13.48-27.06,22.92-1.1,1.42-1.1,4.32,1.23,4.65,4.41,.64,8.81,1.06,13.24,1.26-5.92,6.49-11.39,13.37-16.4,20.27-.84,1.15-.57,2.28,.18,3.05,.1,.18,.22,.36,.37,.53,.36,.41,.73,.81,1.08,1.23-4.35,2.25-8.8,4.77-11.74,8.79C.74,82.01,1.26,88.67,.05,94.97c-.3,1.59,.74,3.74,2.68,3.52,1.12-.12,2.24-.24,3.35-.36-1.78,6.97-1.88,14.01-.54,21.24,.17,.91,1.07,1.74,1.94,1.94,2.29,.54,5.54-.33,8.52-1.68,.05,1.16,.34,2.24,.95,3.11,2.25,3.18,7.81,.64,10.51-.48,10.6-4.4,20.09-10.82,26.78-20.2,.99,.42,2.22,.02,2.98-.65,5.34-4.68,10.73-9.63,15.88-14.87,1.07,4.02,2.14,8.04,3.2,12.07,.52,1.94,3.25,2.81,4.65,1.23,8.66-9.74,15.88-20.61,21.17-32.54,4.72-10.65,9.34-22.71,5.19-34.2,3.78-10.14,5.98-20.76,4.11-30.95ZM43.48,20.45c8.15-4.78,17.9-9.57,27.56-9.35-5.49,3.09-10.67,6.49-15.35,9.75-6.86,4.77-13.3,10.38-19.32,16.45-.06,0-.12-.02-.18-.02-4.07,0-8.09-.21-12.11-.62,5.59-6.38,12.04-11.89,19.4-16.21Zm-9.41,92.37c-2.46,1.38-5.03,2.67-7.6,3.84-.19,.09-3.81,1.78-5.07,1.9,.73-.32,1.2-3.01,1.57-3.58,1.78-2.72-2.13-5.48-4.37-3.37-1.91,1.79-4.38,2.44-6.8,3.25-.28,.09-.78,.23-1.29,.37-.83-6.65-.11-13.13,2.13-19.55,.55-1.58-.94-3.71-2.68-3.52-1.34,.15-2.68,.29-4.03,.44,.39-4.12,.57-8.46,2.7-11.91,2.53-4.1,7.25-6.33,11.38-8.45,.09-.05,.15-.1,.23-.15,.47,.51,.94,1,1.41,1.5-.13,.1-.25,.21-.37,.35-5.58,6.87-4.25,18.17-2.12,26.17,.42,1.56,1.95,2.19,3.42,1.94,.68-.11,1.34-.26,2.01-.39-.21,1.27-.31,2.56-.32,3.96,0,1.79,1.79,3.18,3.52,2.68,7.34-2.11,13.55-6.07,18.43-11.96,.04-.05,.07-.1,.1-.15,1.14,.89,2.28,1.77,3.43,2.64,0,0,0,0,0,0-4.09,5.88-9.48,10.51-15.71,14Zm21.06-16.94c-12.62-9.24-24.09-19.82-34.38-31.59,10.5-14.26,23.24-28.52,37.76-38.63,13.34-9.29,30.94-20.11,47.88-20.07,.98,8.55-1.65,17.41-4.52,25.35-3.1,8.58-7.05,17.01-11.6,24.91-8.74,15.18-22.03,28.41-35.14,40.03Zm40.67-28c-4.16,8.67-9.36,16.73-15.44,24.15-.9-3.41-1.81-6.81-2.71-10.22,7.24-7.86,13.78-16.33,18.72-25.49,2.33-4.33,4.77-8.96,7.02-13.79,.11,8.74-3.88,17.62-7.59,25.35Z"/>
      <path d="M81.06,28.53c-4.07-1.99-9.29-1.41-12.48,1.94-4.06,4.27-3.66,11.54,1.05,15.16,5.39,4.14,13.12,1.19,16.05-4.4,.21-.28,.38-.62,.48-1.04,.13-.34,.18-.65,.19-.94,.72-4.42-1.08-8.66-5.29-10.72Zm-9.27,11.14c-1.11-2.33-.17-5.29,2.23-6.35,3.77-1.66,7.74,1.42,6.77,5.39-1.4,3.54-7.23,4.67-9,.95Z"/>
      <path d="M51.85,52.07c-5.68,1.1-9.37,6.6-7.7,12.22,.07,.23,.16,.44,.27,.63,0,.01,0,.02,.01,.04,2.22,5.23,8.79,7.62,13.82,4.91,3.85-2.07,6.08-6.83,4.97-11.11-1.28-4.93-6.52-7.63-11.38-6.69Zm4.04,12.74c-2.47,1.55-5.16,.15-6.4-2.17-1.41-5.4,7.73-7.32,8.44-2.08,.22,1.62-.67,3.38-2.04,4.24Z"/>
    </g>
  </g>
</svg>