<?xml version="1.0" encoding="UTF-8"?>
<svg id="_Слой_2" data-name="Слой 2" xmlns="http://www.w3.org/2000/svg" viewBox="0 0 127.46 99.35">
  <g id="Object">
    <g>
      <path d="M115.55,66.21c.47,3.5,6.04,3.55,5.57,0-.84-6.3-1.68-12.6-2.52-18.91-.21-1.54-1.11-2.71-2.78-2.78-17.11-.71-34.13-.64-51.12,.09v-13.4c12.93-2.83,17.3-28.24,2.59-30.82-.61-.11-1.15-.03-1.62,.17-8.08-1.82-14.4,.62-16.81,9.56-2.17,8.06,.68,17.61,9.14,20.58,.38,.13,.76,.24,1.13,.34v13.84c-16.72,.87-33.41,2.37-50.13,4.43-.73,.09-1.3,.41-1.73,.85-.8,.22-1.48,.82-1.73,1.89-1.68,7.2-1.91,14.34-.83,21.64,.52,3.53,5.89,2.03,5.37-1.48-.87-5.88-.63-11.74,.59-17.53,16.22-1.97,32.42-3.41,48.63-4.24,.2,.56,.57,.99,1.02,1.27-.35,4.52,.17,9.36,.33,13.83,.13,3.57,5.7,3.59,5.57,0-.1-2.73-.18-5.47-.21-8.2,0-.62-.37-4.71-.16-6.3,.63-.11,1.13-.47,1.49-.97,15.31-.6,30.64-.64,46.05-.07,.72,5.4,1.44,10.81,2.16,16.21ZM54.23,11.6c1.74-6.49,5.89-6.9,11.66-5.24,.61,.18,1.16,.15,1.63-.02,7.43,4,1.93,23.97-8.63,18.7-4.99-2.49-5.98-8.5-4.66-13.44Z"/>
      <path d="M15.43,86.73c-.13-.27-.3-.48-.47-.67-1.2-1.58-2.8-2.73-4.76-3.27-1.92-.52-4.58-.62-6.35,.35-3.92,2.14-4.85,8.69-2.79,12.42,2.11,3.83,7.62,4.79,11.25,2.7,3.83-2.2,4.99-6.85,3.46-10.76-.07-.26-.18-.52-.35-.78Z"/>
      <path d="M70.9,83.21c-1.09-1.63-2.84-2.87-4.74-2.94-.18-.09-.36-.16-.54-.19-3.62-.58-7.62-.47-9.44,3.3-1.69,3.5-1.09,8.22,1.81,10.92,2.79,2.6,7.12,2.98,10.12,.52,2.83-2.32,4.44-6.94,3.24-10.48-.05-.37-.19-.75-.45-1.13Z"/>
      <path d="M127.43,82.29c.05-.38,.02-.81-.14-1.27-.09-.47-.26-.84-.49-1.14-1.11-2.21-3.03-3.88-5.48-4.22-.53-.66-1.18-1.14-2.24-1.24-2.01-.18-4.12,.71-5.65,1.94-3.3,2.64-4.4,7.19-2.42,10.97,1.84,3.51,6.12,5.84,10.06,4.92,4.38-1.02,6.6-5.77,6.35-9.97Z"/>
    </g>
  </g>
</svg>