<?xml version="1.0" encoding="UTF-8"?>
<svg id="_Слой_2" data-name="Слой 2" xmlns="http://www.w3.org/2000/svg" viewBox="0 0 123.49 128.19">
  <g id="Object">
    <path d="M116.97,34.12C105.77,10.72,80.52-1.79,55.1,.21,25.93,2.5,9,28.59,1.93,54.6c-6.24,25.02,2.64,53.41,26.63,65.46,13.14,6.6,29.72,9.34,44.3,7.65,14.09-1.64,26.51-9.45,35.37-20.37,16.43-20.22,19.99-49.7,8.73-73.22ZM7.3,56.08c.81-2.97,1.76-6,2.86-9.01,9.22-.77,18.46-1.31,27.7-1.64-1.84,8.36-2.83,16.9-2.62,25.55,.09,3.88,.43,7.75,1.01,11.58-9.75,1.1-19.51,1.99-29.25,1.27-2.16-9.08-1.96-18.67,.3-27.75Zm36.76-10.83c10.78-.26,21.56-.22,32.33,.13,1.64,11.54,1.91,23.24,.83,34.84-4.98-.14-9.97-.16-14.96-.01-6.82,.2-13.64,.94-20.47,1.72-1.58-11.96-.53-24.45,2.27-36.68Zm37.92,.34c11.38,.48,22.76,1.29,34.11,2.44,2.91,11.74,2.37,24.37-1.38,35.9-10.57-1.77-21.22-2.97-31.9-3.5,1.04-11.6,.76-23.3-.82-34.84Zm24.34-18.32c3.47,4.6,6.14,9.68,8.04,15.03-11.07-1.09-22.15-1.86-33.25-2.31-2.01-11.52-5.32-22.83-9.92-33.69,13.79,2.52,26.78,9.91,35.13,20.97ZM64.79,5.48c5,11.01,8.56,22.54,10.69,34.3-10-.31-20.02-.35-30.02-.13,3.29-12.06,8.15-23.75,13.72-34.3,1.87-.05,3.75-.01,5.62,.12Zm-18.28,1.74c2.01-.56,4.05-.99,6.11-1.29-5.5,10.8-10.26,22.16-13.4,33.9-8.93,.29-17.85,.79-26.76,1.5C19.15,25.93,30.03,11.79,46.51,7.22ZM10.73,94.43c-.77-1.6-1.45-3.25-2.05-4.91,9.52,.52,19.05-.47,28.57-1.56,2.66,12.36,7.97,24.07,16.1,33.79-3.7-.57-7.32-1.36-10.78-2.31-13.79-3.77-25.53-11.94-31.83-25.01Zm50.94,28.16c-10.42-10.3-16.36-22.39-18.98-35.26,5.82-.66,11.63-1.27,17.45-1.48,5.49-.21,10.99-.21,16.47-.07-1.64,12.58-4.89,24.98-9.72,36.85-1.73,.06-3.47,.04-5.21-.04Zm21.62-3.13c-3.28,1.3-6.73,2.15-10.25,2.65,4.56-11.68,7.62-23.83,9.17-36.14,10.22,.49,20.4,1.58,30.5,3.25-.75,1.76-1.58,3.49-2.49,5.18-5.89,10.88-15.3,20.46-26.94,25.06Z"/>
  </g>
</svg>