<?xml version="1.0" encoding="UTF-8"?>
<svg id="_Слой_2" data-name="Слой 2" xmlns="http://www.w3.org/2000/svg" viewBox="0 0 137.15 121.12">
  <g id="Object">
    <g>
      <path d="M8.48,87.22c.43,.34,.98,.56,1.68,.57,38.95,.31,77.74-.98,116.67-1.9,1.47-.03,2.83-1.25,2.78-2.78-.74-23.08-1.61-46.11-3.44-69.14-.12-1.57-1.18-2.69-2.78-2.78-37.45-2.15-74.52-.25-111.89,2.03-1.49,.09-2.8,1.2-2.78,2.78,.22,22.98-.76,46.03-1.33,69-.03,1.05,.44,1.78,1.1,2.22ZM120.8,16.62c1.62,21.24,2.46,42.49,3.15,63.77-37.01,.89-73.9,2.05-110.93,1.84,.56-21.18,1.39-42.42,1.27-63.61,35.57-2.15,70.88-3.86,106.51-2Z"/>
      <path d="M3.59,9.38c42.32-3.58,84.81-4.64,127.26-3.16,3.58,.12,3.58-5.44,0-5.57C88.39-.83,45.91,.22,3.59,3.81,.04,4.11,0,9.68,3.59,9.38Z"/>
      <path d="M134.47,91.58c-22.18-.91-44.36,.72-66.54,1.13-21.75,.4-43.52,.81-65.25-.47-3.58-.21-3.57,5.36,0,5.57,18.96,1.12,37.93,.95,56.91,.62-3.08,6.01-6.15,12.03-9.23,18.04-1.63,3.18,3.17,6.01,4.81,2.81,3.57-6.99,7.15-13.98,10.72-20.96,.68-.01,1.36-.02,2.04-.04,1.99-.04,3.98-.09,5.97-.14,2.53,7.03,5.06,14.06,7.6,21.08,1.21,3.35,6.59,1.9,5.37-1.48-2.38-6.59-4.75-13.19-7.13-19.78,18.24-.6,36.48-1.57,54.73-.82,3.58,.15,3.58-5.42,0-5.57Z"/>
      <path d="M37.44,67.09c7.25-6.34,14.24-12.95,21.02-19.79,2.83,4.91,5.66,9.82,8.49,14.74,.99,1.71,2.99,1.63,4.37,.56,8.39-6.49,16.58-13.22,24.6-20.16,0,.12,0,.24,0,.36,.08,2.45,.17,4.91,.25,7.36,.12,3.57,5.69,3.59,5.57,0-.1-2.86-.2-5.72-.3-8.58-.08-2.38,.2-5.08-.45-7.37-.25-.88-1.01-1.76-1.94-1.94-2.43-.48-4.71,.55-7.07,1.04-2.85,.58-5.76,.75-8.66,.93-3.56,.22-3.58,5.79,0,5.57,2.47-.16,4.94-.32,7.4-.67,.22-.03,.44-.07,.66-.1-6.93,5.98-14,11.8-21.21,17.45-2.91-5.04-5.81-10.08-8.72-15.12-.89-1.54-3.13-1.85-4.37-.56-7.56,7.77-15.42,15.22-23.58,22.37-2.7,2.36,1.25,6.29,3.94,3.94Z"/>
    </g>
  </g>
</svg>